<?xml version="1.0" standalone="no"?>
<!DOCTYPE svg PUBLIC "-//W3C//DTD SVG 20010904//EN"
 "http://www.w3.org/TR/2001/REC-SVG-20010904/DTD/svg10.dtd">
<svg version="1.0" xmlns="http://www.w3.org/2000/svg"
 width="700.000000pt" height="700.000000pt" viewBox="0 0 700.000000 700.000000"
 preserveAspectRatio="xMidYMid meet">
<metadata>
Created by potrace 1.14, written by Peter Selinger 2001-2017
</metadata>
<g transform="translate(0.000000,700.000000) scale(0.100000,-0.100000)"
fill="#000000" stroke="none">
<path d="M3355 6985 c-93 -20 -97 -21 -166 -52 -35 -16 -302 -168 -594 -338
-291 -169 -663 -385 -825 -480 -1187 -690 -1062 -615 -1144 -693 -124 -118
-211 -290 -234 -462 -3 -25 -5 -691 -5 -1480 l0 -1435 22 -85 c50 -195 162
-359 321 -467 36 -24 429 -255 580 -340 19 -11 87 -51 150 -88 63 -37 131 -76
150 -87 19 -10 44 -24 55 -31 64 -40 124 -75 150 -89 24 -12 575 -331 635
-367 8 -5 83 -49 165 -97 83 -48 211 -123 285 -167 330 -195 401 -221 600
-221 99 0 141 4 203 22 103 29 136 46 560 294 199 116 378 220 397 231 55 30
367 212 390 227 8 6 33 19 55 31 22 12 72 41 110 64 39 22 104 61 145 85 41
24 108 63 147 87 40 24 75 43 79 43 3 0 26 14 51 30 24 17 46 30 49 30 2 0 37
20 77 44 39 24 88 53 107 63 19 11 61 35 93 54 32 19 66 39 76 44 240 138 315
191 386 276 89 107 162 266 181 394 10 66 11 2842 2 2920 -13 106 -34 176 -79
265 -84 167 -197 271 -449 412 -25 14 -150 87 -279 162 -129 75 -235 136 -237
136 -2 0 -27 15 -56 33 -29 19 -73 45 -98 59 -80 45 -111 63 -360 208 -230
134 -316 184 -400 232 -19 11 -100 59 -180 106 -80 46 -158 92 -175 102 -16 9
-113 65 -213 124 -234 136 -284 161 -374 186 -91 26 -267 33 -353 15z m251
-1126 c100 -45 148 -67 247 -110 939 -414 1413 -978 1402 -1670 -3 -140 -6
-175 -32 -299 -8 -41 -17 -83 -18 -93 -4 -19 -56 -190 -60 -195 -1 -1 -91 29
-201 67 -109 38 -218 75 -242 83 -29 9 -41 17 -37 27 48 124 85 338 80 461 -4
75 -9 109 -31 209 -10 49 -72 167 -118 228 -61 80 -188 207 -286 284 -89 70
-263 189 -268 184 -2 -2 -4 -604 -4 -1337 0 -735 -4 -1361 -9 -1393 -57 -379
-270 -681 -609 -867 -89 -49 -234 -100 -325 -113 -93 -14 -130 -17 -204 -17
-123 -1 -209 12 -331 48 -407 121 -721 475 -800 899 -22 118 -18 305 9 441 25
129 102 301 187 420 73 102 223 249 282 277 12 5 22 14 22 19 0 4 5 8 10 8 6
0 27 11 48 25 60 39 197 95 300 121 123 32 325 40 452 19 144 -24 301 -81 407
-148 24 -15 45 -27 47 -27 3 0 5 548 5 1218 0 1344 -1 1262 5 1262 2 0 35 -14
72 -31z"/>
<path d="M2800 3084 c-141 -24 -260 -83 -356 -179 -127 -126 -188 -273 -188
-450 1 -249 131 -462 347 -569 338 -167 743 -13 880 334 31 80 39 123 40 220
2 131 -15 204 -71 311 -106 204 -320 335 -549 336 -43 1 -89 -1 -103 -3z"/>
</g>
</svg>
