<?xml version="1.0" encoding="UTF-8" standalone="no"?>
<!-- Created with Inkscape (http://www.inkscape.org/) -->

<svg
   width="232.63258mm"
   height="247.83267mm"
   viewBox="0 0 232.63258 247.83267"
   version="1.1"
   id="svg840"
   inkscape:version="1.1.2 (0a00cf5339, 2022-02-04)"
   sodipodi:docname="white.svg"
   xmlns:inkscape="http://www.inkscape.org/namespaces/inkscape"
   xmlns:sodipodi="http://sodipodi.sourceforge.net/DTD/sodipodi-0.dtd"
   xmlns="http://www.w3.org/2000/svg"
   xmlns:svg="http://www.w3.org/2000/svg">
  <sodipodi:namedview
     id="namedview842"
     pagecolor="#ffffff"
     bordercolor="#666666"
     borderopacity="1.0"
     inkscape:pageshadow="2"
     inkscape:pageopacity="0.0"
     inkscape:pagecheckerboard="0"
     inkscape:document-units="mm"
     showgrid="false"
     inkscape:zoom="0.25035793"
     inkscape:cx="655.06213"
     inkscape:cy="790.8677"
     inkscape:window-width="1366"
     inkscape:window-height="731"
     inkscape:window-x="0"
     inkscape:window-y="0"
     inkscape:window-maximized="1"
     inkscape:current-layer="layer1"
     fit-margin-top="0"
     fit-margin-left="0"
     fit-margin-right="0"
     fit-margin-bottom="0" />
  <defs
     id="defs837" />
  <g
     inkscape:label="Layer 1"
     inkscape:groupmode="layer"
     id="layer1"
     transform="translate(198.03633,-55.917114)">
    <path
       style="fill:#ffffff;fill-opacity:1;stroke:none;stroke-width:0.264583px;stroke-linecap:butt;stroke-linejoin:miter;stroke-opacity:1"
       d="m -198.03633,97.222543 1e-5,165.221787 c 0,0 0,41.30546 41.30544,41.30546 h 82.610859 c 20.65271,0 29.20735,-12.0981 29.20735,-12.0981 l 73.0184,-73.0184 c 14.60367,-14.60368 0,-29.20737 0,-29.20737 -14.60367,-14.60367 -34.6145999,6.47862 -34.6145999,6.47862 l -26.3057301,25.23434 1e-5,-144.569046 c 0,0 -1e-5,-20.65272 -20.65272,-20.65272 -20.65273,0 -20.65273,20.65272 -20.65273,20.65272 l 1e-5,103.263596 c 0,0 0,-20.65273 -20.65272,-20.65273 -20.652719,0 -20.652719,20.65273 -20.652719,20.65273 0,0 0,-20.65273 -20.65269,-20.65273 -20.65272,0 -20.65273,20.65273 -20.65273,20.65273 l 10e-6,-82.610877 c 0,0 0,-20.652719 -20.65273,-20.652719 -20.65272,0 -20.65272,20.652709 -20.65272,20.652709 z"
       id="path1399"
       sodipodi:nodetypes="ccccccccccsccccccccc" />
  </g>
</svg>
